<?xml version="1.0" standalone="no"?><!DOCTYPE svg PUBLIC "-//W3C//DTD SVG 1.1//EN" "http://www.w3.org/Graphics/SVG/1.1/DTD/svg11.dtd"><svg t="1582876244913" class="icon" viewBox="0 0 1024 1024" version="1.1" xmlns="http://www.w3.org/2000/svg" p-id="5058" xmlns:xlink="http://www.w3.org/1999/xlink" width="200" height="200"><defs><style type="text/css"></style></defs><path d="M708.528434 487.238201c-1.77995-0.843976-3.575899-1.682952-5.366848-2.522928 54.696451-51.118552 88.926482-123.856492 88.926482-204.622205C792.088068 125.402449 666.690619 0.005 512 0.005S231.911932 125.402449 231.911932 280.092068c0 80.770713 34.23503 153.507653 88.931482 204.622205-1.789949 0.839976-3.591898 1.683952-5.366848 2.522928-92.390383 43.762761-239.329222 215.899886-239.329223 373.450424 0 165.389316 174.169067 163.311375 174.169068 163.311375l0.971972 0.005v-23.30534c-53.130495-3.284907-151.803701-24.790298-151.8037-140.016035 0-155.089608 143.289942-316.508036 235.895319-363.263712 48.193635 39.213889 109.648895 62.750223 176.624998 62.750223 66.971103 0 128.432363-23.536333 176.624998-62.750223 92.605377 46.750676 235.896319 208.174104 235.896319 363.263712 0 115.220737-98.674206 136.726128-151.805701 140.016035v23.30534l0.972973-0.005s174.169067 2.077941 174.169067-163.311375c-0.005-157.550538-146.943839-329.687663-239.333222-373.450424zM255.249271 280.087068c0-141.795984 114.949745-256.750729 256.750729-256.750729S768.750729 138.286084 768.750729 280.087068 653.800984 536.838797 512 536.838797 255.249271 421.884052 255.249271 280.087068z" fill="#ffffff" p-id="5059"></path></svg>